<?xml version="1.0" encoding="UTF-8"?>
<svg width="1200pt" height="1200pt" version="1.1" viewBox="0 0 1200 1200" xmlns="http://www.w3.org/2000/svg">
 <path d="m985.35 214.65c-9.3789-9.3711-22.094-14.637-35.352-14.637s-25.973 5.2656-35.352 14.637l-314.65 314.65-314.65-314.65c-12.703-12.266-30.93-16.922-47.957-12.254-17.027 4.668-30.332 17.973-35 35-4.668 17.027-0.011719 35.254 12.254 47.957l314.65 314.65-314.65 314.65c-9.6445 9.3203-15.145 22.121-15.262 35.531-0.11719 13.41 5.1602 26.309 14.645 35.789 9.4805 9.4844 22.379 14.762 35.789 14.645 13.41-0.11719 26.211-5.6172 35.531-15.262l314.65-314.65 314.65 314.65v0.003906c12.703 12.266 30.93 16.922 47.957 12.254 17.027-4.668 30.332-17.973 35-35 4.668-17.027 0.011719-35.254-12.254-47.957l-314.65-314.65 314.65-314.65h0.003906c9.3711-9.3789 14.637-22.094 14.637-35.352s-5.2656-25.973-14.637-35.352z"/>
</svg>
